Coordinates
version=1
nRows=29
nColumns=24
inDegrees=yes

Units are S.I. units (second, meters, Newtons, ...)
Angles are in degrees.

endheader
time	pelvis_tilt	pelvis_list	pelvis_rotation	pelvis_tx	pelvis_ty	pelvis_tz	hip_flexion_r	hip_adduction_r	hip_rotation_r	knee_angle_r	ankle_angle_r	subtalar_angle_r	mtp_angle_r	hip_flexion_l	hip_adduction_l	hip_rotation_l	knee_angle_l	ankle_angle_l	subtalar_angle_l	mtp_angle_l	lumbar_extension	lumbar_bending	lumbar_rotation
      4.91000000	    -15.55578985	     11.66877921	     -9.46792661	      0.69249282	     -0.02735364	     -0.01029746	     19.20531872	    -15.98267803	     -1.37568969	    -55.44410246	    -28.51693669	     18.13762922	     42.07685761	     31.54220929	      9.14667059	    -18.94051251	    -16.08653848	     -7.93556043	      4.43143536	     11.01431225	     15.59550068	    -13.30251206	     10.03201367
      4.91500000	    -15.45338199	     11.63948215	     -9.33063743	      0.69886680	     -0.02623540	     -0.01094285	     19.84581715	    -16.01172343	     -1.19780670	    -56.44003864	    -27.63571151	     17.93967513	     42.24075182	     30.79317272	      9.41269653	    -18.76783654	    -15.62345428	     -7.71283415	      4.60968096	     11.06485057	     15.50663060	    -13.30913896	      9.68487706
      4.92000000	    -15.32822231	     11.60443140	     -9.18428288	      0.70524770	     -0.02505650	     -0.01157995	     20.44903577	    -16.04166007	     -1.04329590	    -57.35917732	    -26.82928174	     17.83475869	     42.41684385	     30.00474573	      9.68098904	    -18.57500897	    -15.13726433	     -7.52886676	      4.80385054	     11.07704486	     15.39046927	    -13.31751681	      9.30389167
      4.92500000	    -15.20449794	     11.51925431	     -9.01974683	      0.71163692	     -0.02386847	     -0.01227870	     21.01762045	    -16.02787947	     -0.93235508	    -58.19159456	    -26.06950494	     17.84541805	     42.64935586	     29.20754865	      9.90994220	    -18.33446664	    -14.65764967	     -7.32966829	      4.97644117	     11.07825286	     15.26541798	    -13.27207551	      8.90871517
      4.93000000	    -15.07472845	     11.39996332	     -8.83565240	      0.71803683	     -0.02265412	     -0.01300834	     21.54574163	    -15.98368299	     -0.85302269	    -58.93522130	    -25.37162046	     17.95542010	     42.95695682	     28.39112050	     10.11457012	    -18.04690510	    -14.17328871	     -7.14061650	      5.13351762	     11.05316384	     15.12593471	    -13.19500488	      8.48518431
      4.93500000	    -14.94169321	     11.24727339	     -8.63738258	      0.72444045	     -0.02142376	     -0.01375932	     22.03982145	    -15.90541094	     -0.79835392	    -59.59236046	    -24.73267054	     18.14288562	     43.35792341	     27.55955856	     10.29117997	    -17.71295479	    -13.68442318	     -6.96016235	      5.26519125	     11.00168825	     14.97610694	    -13.08475681	      8.04058137
      4.94000000	    -14.81424590	     11.06938020	     -8.42854688	      0.73083762	     -0.02020062	     -0.01452700	     22.51584787	    -15.79883059	     -0.76413378	    -60.17278553	    -24.13813043	     18.38273981	     43.84165913	     26.72654156	     10.44162399	    -17.34682462	    -13.19339226	     -6.79045469	      5.37275164	     10.93314843	     14.82815489	    -12.94758952	      7.58752079
      4.94500000	    -14.69710666	     10.87187929	     -8.21237604	      0.73721651	     -0.01899559	     -0.01530642	     22.98382807	    -15.66385317	     -0.73862692	    -60.68313597	    -23.57050877	     18.65604748	     44.37385141	     25.89961199	     10.56746431	    -16.96022175	    -12.69908299	     -6.63381408	      5.45973210	     10.85491552	     14.68672448	    -12.78697221	      7.13429867
      4.95000000	    -14.51549832	     10.63599347	     -8.00976289	      0.74358555	     -0.01770999	     -0.01610065	     23.35149072	    -15.49543808	     -0.75134707	    -61.09140647	    -23.05442403	     18.80432232	     45.22334851	     24.98571795	     10.66991976	    -16.47934305	    -12.18672756	     -6.48417577	      5.40539671	     10.65574610	     14.47385089	    -12.59031512	      6.68954969
      4.95500000	    -14.47510940	     10.43321695	     -7.78121039	      0.74990038	     -0.01665864	     -0.01684930	     23.89092057	    -15.32986462	     -0.72592560	    -61.50631865	    -22.47156684	     19.19623870	     45.66352215	     24.25020926	     10.75107217	    -16.14031870	    -11.70581933	     -6.34098212	      5.56361454	     10.64139409	     14.42180353	    -12.41640427	      6.24314278
      4.96000000	    -14.36885314	     10.18726135	     -7.53710400	      0.75620389	     -0.01552299	     -0.01766195	     24.31478248	    -15.13600826	     -0.74567998	    -61.82558241	    -21.89554522	     19.56104674	     46.19144750	     23.42498798	     10.81495777	    -15.69518327	    -11.20400080	     -6.22081239	      5.60227927	     10.54711654	     14.28253062	    -12.20730347	      5.76637296
      4.96500000	    -14.19395047	      9.93121432	     -7.31447253	      0.76247957	     -0.01434168	     -0.01847736	     24.65349198	    -14.93973222	     -0.80306323	    -62.07252911	    -21.32715042	     19.69654612	     46.96829215	     22.51437494	     10.87752278	    -15.16640340	    -10.68233396	     -6.11267290	      5.48812810	     10.32510820	     14.07135662	    -11.98879086	      5.32173046
      4.97000000	    -14.10580967	      9.67908039	     -7.07279805	      0.76868658	     -0.01331512	     -0.01928227	     25.08849264	    -14.72817733	     -0.84166399	    -62.29264719	    -20.71858540	     19.96425872	     47.54313400	     21.71849228	     10.90851492	    -14.73332747	    -10.19129951	     -5.99021565	      5.52155621	     10.21417804	     13.95111680	    -11.76714236	      4.86458645
      4.97500000	    -14.01767236	      9.41998217	     -6.83457905	      0.77490613	     -0.01231352	     -0.02008736	     25.50937804	    -14.50832239	     -0.89459731	    -62.45912400	    -20.08372203	     20.20185372	     47.99630070	     20.91286135	     10.92431452	    -14.30000466	     -9.68166793	     -5.89049749	      5.53963989	     10.10466966	     13.84038155	    -11.53393650	      4.44295298
      4.98000000	    -13.97538043	      9.16117257	     -6.59404181	      0.78104558	     -0.01141936	     -0.02088754	     25.98534880	    -14.27363878	     -0.93096322	    -62.59555918	    -19.42486707	     20.47341931	     48.27763835	     20.17455669	     10.91542119	    -13.92217844	     -9.19367177	     -5.78513481	      5.62993452	     10.06181771	     13.77395580	    -11.29588683	      4.02294911
      4.98500000	    -13.87218385	      8.88701902	     -6.32763090	      0.78716783	     -0.01049414	     -0.02172686	     26.36605082	    -14.05347977	     -1.04286847	    -62.67062073	    -18.74965011	     20.59476267	     48.54542894	     19.35931933	     10.90803028	    -13.46312189	     -8.68960309	     -5.69905775	      5.63704629	      9.97237462	     13.63389750	    -11.05594230	      3.57690788
      4.99000000	    -13.77316875	      8.61898598	     -6.07362041	      0.79325102	     -0.00962564	     -0.02255460	     26.75491086	    -13.83200930	     -1.15176248	    -62.70452679	    -18.06773330	     20.62121535	     48.76033447	     18.55330375	     10.89215219	    -13.02093309	     -8.18444530	     -5.62329420	      5.63001623	      9.87868757	     13.50261072	    -10.81773956	      3.16160239
      4.99500000	    -13.68602472	      8.35588780	     -5.81579834	      0.79929221	     -0.00882461	     -0.02338177	     27.15411159	    -13.61522004	     -1.27219663	    -62.69828584	    -17.37873120	     20.56700498	     48.89778802	     17.76844241	     10.86893292	    -12.59809456	     -7.68622521	     -5.55257491	      5.63466500	      9.79880996	     13.38409017	    -10.58266231	      2.75787334
      5.00000000	    -13.60050396	      8.09420090	     -5.55547006	      0.80529446	     -0.00807561	     -0.02421160	     27.55004448	    -13.40084693	     -1.40485616	    -62.64940468	    -16.68627374	     20.43388767	     48.94868586	     16.99285979	     10.83714659	    -12.18374580	     -7.19494511	     -5.48699361	      5.63736119	      9.72756889	     13.26665518	    -10.34863472	      2.36188317
      5.00500000	    -13.52215683	      7.83446521	     -5.28897504	      0.81126677	     -0.00738695	     -0.02505299	     27.94641746	    -13.19177175	     -1.55371139	    -62.55761629	    -15.99358740	     20.22170626	     48.90622317	     16.23396076	     10.79769419	    -11.78011000	     -6.71410271	     -5.42413415	      5.64836036	      9.66869027	     13.15647278	    -10.11492248	      1.97492856
      5.01000000	    -13.44488491	      7.57617407	     -5.01954770	      0.81720108	     -0.00674809	     -0.02589502	     28.33765175	    -12.98562243	     -1.71467089	    -62.42326441	    -15.30279526	     19.93491382	     48.76894349	     15.48652872	     10.74945539	    -11.38398551	     -6.24559581	     -5.36346933	      5.65982868	      9.61721923	     13.04664648	     -9.88285745	      1.59467862
      5.01500000	    -13.36705542	      7.31882820	     -4.74582297	      0.82309960	     -0.00615844	     -0.02673937	     28.72054766	    -12.78250867	     -1.88792127	    -62.24637647	    -14.61616508	     19.57951440	     48.52988593	     14.75047767	     10.69238184	    -10.99329319	     -5.79336005	     -5.30344652	      5.67154026	      9.57167462	     12.93583495	     -9.65199745	      1.21833617
      5.02000000	    -13.29479667	      7.06615337	     -4.47282189	      0.82895982	     -0.00562417	     -0.02758727	     29.10344478	    -12.58430281	     -2.06857779	    -62.02573618	    -13.93575894	     19.16158697	     48.19304799	     14.03603568	     10.62841153	    -10.61544693	     -5.36207205	     -5.23954823	      5.68985909	      9.53376966	     12.82817419	     -9.42342584	      0.85342193
      5.02500000	    -13.15067507	      6.79776265	     -4.18610659	      0.83478615	     -0.00506669	     -0.02847911	     29.38199172	    -12.38757578	     -2.26056970	    -61.76158927	    -13.21077061	     18.88201621	     47.46149116	     13.24956755	     10.55328016	    -10.17441126	     -4.94405394	     -5.17302482	      5.62820584	      9.47640889	     12.63382562	     -9.18664750	      0.43923938
      5.03000000	    -13.15436843	      6.58794838	     -3.93719908	      0.84056963	     -0.00473859	     -0.02926085	     29.86501071	    -12.21051833	     -2.42990298	    -61.47918755	    -12.58264348	     18.22155342	     47.06627391	     12.66282441	     10.49425423	     -9.89402646	     -4.57043529	     -5.09467583	      5.71592557	      9.46332903	     12.62268597	     -8.98639613	      0.17086390
      5.03500000	    -13.01090933	      6.35343655	     -3.66098321	      0.84634094	     -0.00432278	     -0.03011884	     30.14772415	    -12.04586650	     -2.63046620	    -61.18080050	    -11.83362871	     17.87739934	     45.71072922	     11.91160663	     10.42876300	     -9.48928909	     -4.19954843	     -5.00996167	      5.68160563	      9.40521639	     12.43352989	     -8.77839293	     -0.17925764
      5.04000000	    -13.04433448	      6.11929790	     -3.39364937	      0.85204930	     -0.00410844	     -0.03088212	     30.62815206	    -11.84276163	     -2.82725911	    -60.78381812	    -11.27148735	     17.12542746	     45.36367235	     11.40682855	     10.32115729	     -9.20963827	     -3.91463567	     -4.88092520	      5.79416306	      9.42351341	     12.44733359	     -8.56425609	     -0.47666750
      5.04500000	    -12.92152866	      5.84605200	     -3.06987755	      0.85780484	     -0.00376409	     -0.03179124	     30.87316973	    -11.66634855	     -3.11573486	    -60.33648752	    -10.62272104	     16.62538823	     44.32046407	     10.72631459	     10.19539384	     -8.79560656	     -3.64129895	     -4.73310243	      5.86167097	      9.40341478	     12.27930263	     -8.32014796	     -0.85854524
      5.05000000	    -12.94766201	      5.67537292	     -2.87041034	      0.86338776	     -0.00372150	     -0.03245860	     31.37652173	    -11.49220494	     -3.24546736	    -59.88698418	    -10.09828058	     15.75315323	     43.90279316	     10.26943682	     10.12612766	     -8.56765312	     -3.42777294	     -4.57484151	      5.91430713	      9.41778823	     12.29036127	     -8.15127100	     -1.06737711
